<svg id="Layer_1" height="25" viewBox="0 0 55 55" width="25" xmlns="http://www.w3.org/2000/svg" data-name="Layer 1">
    <path d="m45.31 9.87-34.89 4.57h-.25a2.21 2.21 0 0 1 -1.55-.69 3.15 3.15 0 0 1 -.84-1.75c-.27-2 .84-3.82 2.46-4l33.57-4.4h.31a3.48 3.48 0 0 1 3.1 3.29 2.55 2.55 0 0 1 -1.91 2.98z" />
    <path d="m33.51 3.56-12.83 1.68a3.62 3.62 0 0 1 3-2.58l6.32-.82a3.6 3.6 0 0 1 3.56 1.72z" />
    <path d="m44.75 13.2a.75.75 0 0 0 -.54-.24h-12.47l-21.15 2.77h-.42-.33l2.07 34.49a3.16 3.16 0 0 0 3.14 3h24.57a3.15 3.15 0 0 0 3.14-3l2.24-36.47a.72.72 0 0 0 -.25-.55zm-24.75 33.23a.76.76 0 0 1 -.75-.67l-2.99-25.32a.75.75 0 1 1 1.49-.17l2.95 25.33a.74.74 0 0 1 -.7.83zm8.05-.74a.75.75 0 0 1 -1.5 0v-25.33a.75.75 0 0 1 1.5 0zm7.37.08a.74.74 0 0 1 -.74.67h-.09a.76.76 0 0 1 -.59-.84l3-25.33a.74.74 0 0 1 .83-.66.75.75 0 0 1 .66.83z" />
</svg>